{"title":"Forced.Vengeance.1982.DVDRip.XviD","uid":5533248,"size":736349961,"categoryP":"video","categoryS":"movies","magnet":"?xt=urn:btih:3f163ac05977afe54ce67a0b3daf25f301e163d0&amp;dn=Forced.Vengeance.1982.DVDRip.XviD&amp;tr=udp%3A%2F%2Ftracker.openbittorrent.com%3A80&amp;tr=udp%3A%2F%2Fopen.demonii.com%3A1337&amp;tr=udp%3A%2F%2Ftracker.coppersurfer.tk%3A6969&amp;tr=udp%3A%2F%2Fexodus.desync.com%3A6969","seeders":0,"leechers":1,"uploader":"snsdg","files":-1,"time":1272990227,"description":"A casino security guard is forced into violence from when the Hong Kong mob threatens his friends.\n\n\nIMDB: http://www.imdb.com/title/tt0083960/\n\n &lt;a href=&quot;\nhttp://www.abload.de/img/coverb91r.jpg&quot; rel=&quot;nofollow&quot; target=&quot;_NEW&quot;&gt;\nhttp://www.abload.de/img/coverb91r.jpg&lt;/a&gt;\n &lt;a href=&quot;\nhttp://www.abload.de/img/poster189bz.jpg&quot; rel=&quot;nofollow&quot; target=&quot;_NEW&quot;&gt;\nhttp://www.abload.de/img/poster189bz.jpg&lt;/a&gt;\n &lt;a href=&quot;\nhttp://www.abload.de/img/poster2qxpe.jpg&quot; rel=&quot;nofollow&quot; target=&quot;_NEW&quot;&gt;\nhttp://www.abload.de/img/poster2qxpe.jpg&lt;/a&gt;\n\n\nGeneral\nComplete name                    : Forced.Vengeance.1982.DVDRip.XviD.avi\nFormat                           : AVI\nFormat/Info                      : Audio Video Interleave\nFile size                        : 700 MiB\nDuration                         : 1h 30mn\nOverall bit rate                 : 1 084 Kbps\nWriting application              : VirtualDubMod 1.5.4.1 (build 2178/release)\nWriting library                  : VirtualDubMod build 2178/release\n\nVideo\nID                               : 0\nFormat                           : MPEG-4 Visual\nFormat profile                   : Advanced Simple@L5\nFormat settings, BVOP            : Yes\nFormat settings, QPel            : No\nFormat settings, GMC             : No warppoints\nFormat settings, Matrix          : Custom\nCodec ID                         : XVID\nCodec ID/Hint                    : XviD\nDuration                         : 1h 30mn\nBit rate                         : 1 010 Kbps\nWidth                            : 608 pixels\nHeight                           : 352 pixels\nDisplay aspect ratio             : 16:9\nFrame rate                       : 23.976 fps\nResolution                       : 8 bits\nColorimetry                      : 4:2:0\nScan type                        : Progressive\nBits/(Pixel*Frame)               : 0.197\nStream size                      : 652 MiB (93%)\nWriting library                  : XviD 1.0.3 (UTC 2004-12-20)\n\nAudio\nID                               : 1\nFormat                           : MPEG Audio\nFormat version                   : Version 1\nFormat profile                   : Layer 3\nCodec ID                         : 55\nCodec ID/Hint                    : MP3\nDuration                         : 1h 30mn\nBit rate mode                    : Variable\nBit rate                         : 61.4 Kbps\nChannel(s)                       : 1 channel\nSampling rate                    : 48.0 KHz\nStream size                      : 39.6 MiB (6%)\nAlignment                        : Aligned on interleaves\nInterleave, duration             : 24 ms (0.58 video frame)\nInterleave, preload duration     : 262 ms\nLanguage                         : English\n","torrent":{"xt":"urn:btih:3f163ac05977afe54ce67a0b3daf25f301e163d0","amp;dn":"Forced.Vengeance.1982.DVDRip.XviD","amp;tr":["udp%3A%2F%2Ftracker.openbittorrent.com%3A80","udp%3A%2F%2Fopen.demonii.com%3A1337","udp%3A%2F%2Ftracker.coppersurfer.tk%3A6969","udp%3A%2F%2Fexodus.desync.com%3A6969"],"infoHash":"3f163ac05977afe54ce67a0b3daf25f301e163d0","infoHashBuffer":{"type":"Buffer","data":[63,22,58,192,89,119,175,229,76,230,122,11,61,175,37,243,1,225,99,208]},"announce":[],"urlList":[]}}